<svg width="32" height="32" viewBox="0 0 32 32" fill="none" xmlns="http://www.w3.org/2000/svg">
<path d="M29.9996 3.42212H1.99958C1.84244 3.42212 1.71387 3.55069 1.71387 3.70783V5.99355C1.71387 6.15069 1.84244 6.27926 1.99958 6.27926H29.9996C30.1567 6.27926 30.2853 6.15069 30.2853 5.99355V3.70783C30.2853 3.55069 30.1567 3.42212 29.9996 3.42212ZM29.9996 25.7078H1.99958C1.84244 25.7078 1.71387 25.8364 1.71387 25.9936V28.2793C1.71387 28.4364 1.84244 28.565 1.99958 28.565H29.9996C30.1567 28.565 30.2853 28.4364 30.2853 28.2793V25.9936C30.2853 25.8364 30.1567 25.7078 29.9996 25.7078ZM29.9996 14.565H1.99958C1.84244 14.565 1.71387 14.6935 1.71387 14.8507V17.1364C1.71387 17.2935 1.84244 17.4221 1.99958 17.4221H29.9996C30.1567 17.4221 30.2853 17.2935 30.2853 17.1364V14.8507C30.2853 14.6935 30.1567 14.565 29.9996 14.565Z" fill="#34A853"/>
</svg>
