<svg width="40" height="40" viewBox="0 0 40 40" fill="none" xmlns="http://www.w3.org/2000/svg">
<rect width="40" height="40" fill="white" fill-opacity="0.01"/>
<path d="M18.9734 9.13C19.7541 8.34792 20.6817 7.72772 21.7027 7.30499C22.7238 6.88227 23.8183 6.66534 24.9234 6.66666C26.5434 6.66666 28.165 7.13333 29.57 8.065C29.6034 8.02167 29.6417 7.98166 29.68 7.94166C29.8405 7.77738 30.033 7.64768 30.2455 7.56055C30.458 7.47341 30.686 7.43068 30.9157 7.43498C31.1453 7.43928 31.3716 7.49053 31.5807 7.58557C31.7898 7.6806 31.9772 7.81742 32.1314 7.9876C32.2857 8.15778 32.4034 8.35771 32.4775 8.57511C32.5516 8.79251 32.5804 9.02276 32.5621 9.2517C32.5439 9.48064 32.479 9.70343 32.3714 9.90636C32.2639 10.1093 32.1159 10.2881 31.9367 10.4317C33.0077 12.0496 33.4866 13.988 33.2922 15.9185C33.0978 17.8491 32.2421 19.6531 30.87 21.025L29.6617 22.2333C28.3584 23.5383 26.64 25.9167 25.8084 27.5783L23.2934 32.605C22.8784 33.4383 22.005 33.5783 21.3417 32.9167L7.08171 18.6583C6.42004 17.9967 6.56837 17.1183 7.39337 16.705L12.4217 14.1917C14.07 13.3683 16.455 11.6483 17.765 10.3383L18.9734 9.13Z" fill="#34A853"/>
<path fill-rule="evenodd" clip-rule="evenodd" d="M13.2067 6.03L13.875 7.64333C13.9588 7.84557 14.0018 8.06231 14.0018 8.28119C14.0017 8.50007 13.9586 8.7168 13.8748 8.919C13.791 9.1212 13.6682 9.30491 13.5133 9.45965C13.3585 9.61438 13.1748 9.73711 12.9725 9.82083C12.7703 9.90455 12.5536 9.94761 12.3347 9.94757C12.1158 9.94752 11.8991 9.90436 11.6969 9.82056C11.2885 9.6513 10.9641 9.32676 10.795 8.91833L10.1284 7.305C10.0447 7.10276 10.0016 6.88602 10.0016 6.66714C10.0017 6.44826 10.0448 6.23153 10.1287 6.02933C10.2125 5.82713 10.3353 5.64342 10.4901 5.48868C10.6449 5.33395 10.8286 5.21122 11.0309 5.1275C11.2331 5.04378 11.4499 5.00072 11.6687 5.00076C11.8876 5.00081 12.1043 5.04397 12.3065 5.12777C12.5087 5.21158 12.6925 5.33439 12.8472 5.48919C13.0019 5.644 13.1247 5.82776 13.2084 6.03H13.2067ZM7.30504 10.1267L8.91837 10.795C9.3099 10.9756 9.61633 11.3007 9.77339 11.7022C9.93046 12.1038 9.92598 12.5505 9.76088 12.9488C9.59579 13.3471 9.2829 13.666 8.88782 13.8387C8.49275 14.0114 8.04617 14.0244 7.64171 13.875L6.02837 13.2083C5.63684 13.0278 5.33042 12.7026 5.17336 12.3011C5.01629 11.8996 5.02077 11.4528 5.18587 11.0545C5.35096 10.6562 5.66385 10.3373 6.05893 10.1646C6.454 9.99197 6.90058 9.97729 7.30504 10.1267ZM27.03 30.1267C26.6221 30.2966 26.2981 30.6212 26.1288 31.0294C25.9595 31.4376 25.9588 31.8962 26.1267 32.305L26.7967 33.9183C26.8805 34.1206 27.0034 34.3043 27.1582 34.4591C27.3131 34.6138 27.4969 34.7366 27.6991 34.8203C27.9014 34.904 28.1182 34.9471 28.3371 34.9471C28.556 34.947 28.7728 34.9038 28.975 34.82C29.1773 34.7362 29.361 34.6133 29.5158 34.4585C29.6705 34.3037 29.7933 34.1198 29.877 33.9176C29.9608 33.7153 30.0038 33.4985 30.0038 33.2796C30.0037 33.0607 29.9605 32.8439 29.8767 32.6417L29.2084 31.03C29.1247 30.8276 29.002 30.6436 28.8473 30.4887C28.6925 30.3337 28.5087 30.2108 28.3064 30.1269C28.1041 30.043 27.8873 29.9998 27.6683 29.9997C27.4492 29.9997 27.2324 30.0428 27.03 30.1267ZM30.1284 27.0317C29.9594 27.4397 29.9593 27.8981 30.128 28.3062C30.2968 28.7143 30.6206 29.0388 31.0284 29.2083L32.6434 29.8767C33.0478 30.026 33.4944 30.013 33.8895 29.8404C34.2846 29.6677 34.5975 29.3488 34.7626 28.9505C34.9276 28.5522 34.9321 28.1054 34.7751 27.7039C34.618 27.3024 34.3116 26.9772 33.92 26.7967L32.3034 26.1283C31.8949 25.9595 31.4362 25.9599 31.028 26.1293C30.6198 26.2987 30.2973 26.6233 30.1284 27.0317ZM10.8084 29.4483C11.1179 29.758 11.4854 30.0037 11.89 30.1713C12.2945 30.3389 12.728 30.4251 13.1659 30.4251C13.6037 30.4251 14.0373 30.3389 14.4418 30.1713C14.8463 30.0037 15.2138 29.758 15.5234 29.4483L10.8084 24.7317C10.4985 25.0412 10.2526 25.4089 10.0848 25.8135C9.91709 26.2182 9.83075 26.6519 9.83075 27.09C9.83075 27.5281 9.91709 27.9618 10.0848 28.3665C10.2526 28.7711 10.4985 29.1388 10.8084 29.4483Z" fill="#34A853"/>
</svg>
