<svg width="46" height="42" viewBox="0 0 46 42" fill="none" xmlns="http://www.w3.org/2000/svg">
<rect width="46" height="42" rx="10" fill="#D6EEDD"/>
<path d="M22 20.9V26C22 26.2652 22.1054 26.5196 22.2929 26.7071C22.4804 26.8947 22.7348 27 23 27C23.2652 27 23.5196 26.8947 23.7071 26.7071C23.8946 26.5196 24 26.2652 24 26V20.9C25.214 20.6522 26.2928 19.9624 27.0272 18.9644C27.7616 17.9664 28.0992 16.7313 27.9747 15.4985C27.8501 14.2657 27.2723 13.123 26.3532 12.2921C25.434 11.4611 24.2391 11.001 23 11.001C21.7609 11.001 20.566 11.4611 19.6468 12.2921C18.7277 13.123 18.1499 14.2657 18.0253 15.4985C17.9008 16.7313 18.2384 17.9664 18.9728 18.9644C19.7072 19.9624 20.786 20.6522 22 20.9ZM23 13C23.5933 13 24.1734 13.176 24.6667 13.5056C25.1601 13.8353 25.5446 14.3038 25.7716 14.852C25.9987 15.4001 26.0581 16.0033 25.9424 16.5853C25.8266 17.1672 25.5409 17.7018 25.1213 18.1213C24.7018 18.5409 24.1672 18.8266 23.5853 18.9424C23.0033 19.0581 22.4001 18.9987 21.8519 18.7717C21.3038 18.5446 20.8352 18.1601 20.5056 17.6667C20.1759 17.1734 20 16.5934 20 16C20 15.2044 20.3161 14.4413 20.8787 13.8787C21.4413 13.3161 22.2044 13 23 13ZM27.21 23.42C27.0787 23.3924 26.9432 23.391 26.8113 23.4158C26.6795 23.4406 26.5537 23.4911 26.4414 23.5644C26.329 23.6378 26.2322 23.7325 26.1565 23.8433C26.0808 23.9541 26.0276 24.0787 26 24.21C25.9724 24.3413 25.971 24.4768 25.9958 24.6087C26.0205 24.7406 26.071 24.8663 26.1444 24.9786C26.2178 25.091 26.3125 25.1878 26.4233 25.2635C26.5341 25.3393 26.6587 25.3924 26.79 25.42C29.06 25.87 30 26.68 30 27C30 27.58 27.55 29 23 29C18.45 29 16 27.58 16 27C16 26.68 16.94 25.87 19.21 25.38C19.3413 25.3524 19.4659 25.2993 19.5767 25.2235C19.6875 25.1478 19.7822 25.051 19.8556 24.9386C19.929 24.8263 19.9795 24.7006 20.0042 24.5687C20.029 24.4368 20.0276 24.3013 20 24.17C19.9724 24.0387 19.9192 23.9141 19.8435 23.8033C19.7678 23.6925 19.671 23.5978 19.5586 23.5244C19.4463 23.4511 19.3205 23.4006 19.1887 23.3758C19.0568 23.351 18.9213 23.3524 18.79 23.38C15.75 24.08 14 25.39 14 27C14 29.63 18.53 31 23 31C27.47 31 32 29.63 32 27C32 25.39 30.25 24.08 27.21 23.42Z" fill="#34A853"/>
</svg>
