<svg width="39" height="39" viewBox="0 0 39 39" fill="none" xmlns="http://www.w3.org/2000/svg">
<circle cx="19.5" cy="19.5" r="19.5" fill="#34A853"/>
<path fill-rule="evenodd" clip-rule="evenodd" d="M17.3987 13.2026C19.0374 12.2505 21.0515 12.2671 22.6748 13.2462C24.2821 14.2452 25.259 16.0281 25.2499 17.9461C25.2125 19.8515 24.165 21.6425 22.8556 23.0271C22.0999 23.8298 21.2545 24.5396 20.3366 25.142C20.2421 25.1967 20.1386 25.2333 20.0311 25.25C19.9277 25.2456 19.827 25.215 19.7381 25.1611C18.3368 24.2559 17.1075 23.1005 16.1092 21.7505C15.2739 20.6235 14.7994 19.262 14.75 17.8508C14.7489 15.9292 15.7601 14.1547 17.3987 13.2026ZM18.3457 18.6461C18.6213 19.3256 19.272 19.7689 19.9938 19.7689C20.4667 19.7723 20.9212 19.5829 21.2562 19.2429C21.5912 18.9028 21.7787 18.4405 21.777 17.9588C21.7795 17.2235 21.3467 16.5592 20.6805 16.2761C20.0144 15.9929 19.2464 16.1468 18.7351 16.6658C18.2238 17.1848 18.0701 17.9665 18.3457 18.6461Z" fill="#FFC043"/>
<ellipse opacity="0.4" cx="20" cy="26.75" rx="3.75" ry="0.75" fill="#FFC043"/>
</svg>
